<svg width="1808" height="441" viewBox="0 0 1808 441" fill="none" xmlns="http://www.w3.org/2000/svg">
<g filter="url(#filter0_i)">
<rect x="163" y="21" width="181" height="181" rx="27" fill="#0F6685"/>
</g>
<g filter="url(#filter1_i)">
<rect x="379" y="21" width="181" height="181" rx="27" fill="#0F6685"/>
</g>
<g filter="url(#filter2_i)">
<rect y="222" width="181" height="181" rx="27" fill="#00B047"/>
</g>
<g filter="url(#filter3_i)">
<rect x="216" y="222" width="181" height="181" rx="27" fill="#ECECEC"/>
</g>
<g filter="url(#filter4_i)">
<rect x="432" y="222" width="181" height="181" rx="27" fill="#ECECEC"/>
</g>
<path d="M45.4 301.32H64.52L63.48 298.2L55.08 272.28C54.44 274.573 51.56 283.24 46.44 298.28L45.4 301.32ZM71.08 321L66.36 306.84H43.56L38.76 321H31.8L50.6 267.08H59.56L78.04 321H71.08Z" fill="white"/>
<path d="M226.56 66.88H233.04L238.96 86.08L247.12 113.44C249.573 101.653 251.547 92.56 253.04 86.16L257.6 66.08H264.16L251.52 120H243.2L238 102.96L229.92 76C228.267 82.2933 225.707 91.28 222.24 102.96L217.2 120H208.96L194.88 66.08H201.68L206.72 86.08L213.36 113.2C216.347 102.267 218.88 93.2267 220.96 86.08L226.56 66.88Z" fill="white"/>
<path d="M420.64 114.32H444.24V120H414.16V66.08H443.84V71.76H420.64V90.24H441.12V95.92H420.64V114.32Z" fill="white"/>
<path d="M686.3 321.35H718.7L717.05 316.25C713.25 304.45 710.15 294.7 707.75 287C705.35 279.2 703.9 274.35 703.4 272.45L702.65 269.6C701.55 274.3 696.65 289.85 687.95 316.25L686.3 321.35ZM730.85 359L722.9 334.25H682.1L674 359H657.65L692.6 257.9H712.85L747.35 359H730.85ZM806.923 325.1H795.523C789.923 325.1 785.673 326.2 782.773 328.4C779.973 330.6 778.573 333.4 778.573 336.8C778.573 340.3 779.673 343.05 781.873 345.05C784.073 347.05 787.273 348.05 791.473 348.05C796.273 348.05 800.023 346.75 802.723 344.15C805.523 341.45 806.923 337.95 806.923 333.65V325.1ZM768.673 301.1V286.85C774.573 283.45 782.373 281.75 792.073 281.75C811.973 281.75 821.923 291.4 821.923 310.7V359H807.373V350C803.473 356.4 796.623 359.6 786.823 359.6C779.623 359.6 773.823 357.55 769.423 353.45C765.123 349.25 762.973 343.95 762.973 337.55C762.973 330.25 765.723 324.6 771.223 320.6C776.723 316.5 784.423 314.45 794.323 314.45H806.923V310.1C806.923 304.9 805.673 301 803.173 298.4C800.673 295.7 796.523 294.35 790.723 294.35C782.623 294.35 775.273 296.6 768.673 301.1ZM857.177 321.35C857.377 329.05 859.727 335.4 864.227 340.4C868.727 345.3 875.027 347.75 883.127 347.75C889.127 347.75 894.727 346.1 899.927 342.8V356C895.027 359 888.777 360.5 881.177 360.5C869.277 360.5 859.777 356.75 852.677 349.25C845.577 341.75 842.027 332.4 842.027 321.2C842.027 310.3 845.577 301 852.677 293.3C859.877 285.5 869.577 281.6 881.777 281.6C888.377 281.6 894.427 283 899.927 285.8V299.3C895.027 296.2 889.477 294.65 883.277 294.65C875.377 294.65 869.027 297.15 864.227 302.15C859.527 307.15 857.177 313.55 857.177 321.35ZM936.032 252.95V296C940.332 286.6 948.182 281.9 959.582 281.9C966.982 281.9 972.932 284.2 977.432 288.8C981.932 293.4 984.182 299.8 984.182 308V359H969.482V311C969.482 305.8 968.132 301.8 965.432 299C962.832 296.1 959.382 294.65 955.082 294.65C950.082 294.65 945.632 296.55 941.732 300.35C937.932 304.15 936.032 309.95 936.032 317.75V359H921.332V252.95H936.032ZM1055.7 315.5V312.8C1055.5 307.1 1053.95 302.6 1051.05 299.3C1048.15 295.9 1044 294.2 1038.6 294.2C1033.6 294.2 1029.3 296.05 1025.7 299.75C1022.1 303.35 1019.85 308.6 1018.95 315.5H1055.7ZM1065.15 341.75V354.95C1059.55 358.15 1052.15 359.75 1042.95 359.75C1031.15 359.75 1021.75 356.2 1014.75 349.1C1007.75 342 1004.25 332.7 1004.25 321.2C1004.25 309 1007.45 299.45 1013.85 292.55C1020.25 285.55 1028.4 282.05 1038.3 282.05C1048 282.05 1055.7 285.1 1061.4 291.2C1067.1 297.2 1069.95 305.9 1069.95 317.3C1069.95 320.4 1069.65 323.65 1069.05 327.05H1019.1C1020.1 333.65 1022.9 338.7 1027.5 342.2C1032.1 345.7 1037.9 347.45 1044.9 347.45C1053 347.45 1059.75 345.55 1065.15 341.75ZM1106.46 282.95V296C1110.96 286.6 1118.86 281.9 1130.16 281.9C1137.66 281.9 1143.61 284.2 1148.01 288.8C1152.41 293.4 1154.61 299.65 1154.61 307.55V359H1139.91V311C1139.91 305.7 1138.56 301.65 1135.86 298.85C1133.26 296.05 1129.76 294.65 1125.36 294.65C1120.16 294.65 1115.71 296.7 1112.01 300.8C1108.31 304.8 1106.46 310.45 1106.46 317.75V359H1091.76V282.95H1106.46Z" fill="#00B047"/>
<path d="M664.65 58.4H679.95L690.3 94.25L702.3 137.75C704.8 123.85 707.9 109.3 711.6 94.1L720.75 56.9H739.95L714.15 158H692.25L683.1 126.05C680.6 117.55 678.45 110.05 676.65 103.55C674.95 97.05 673.8 92.7 673.2 90.5L672.45 87.05C671.05 94.05 667.55 107.05 661.95 126.05L652.5 158H630.75L603.75 56.9H623.7L633.15 94.25C634.75 100.95 636.35 107.9 637.95 115.1C639.55 122.3 640.75 127.8 641.55 131.6L642.75 137.45C645.95 124.85 649.85 110.45 654.45 94.25L664.65 58.4ZM803.701 113.75V111.5C803.501 106.6 802.151 102.7 799.651 99.8C797.251 96.8 793.701 95.3 789.001 95.3C784.701 95.3 780.951 96.9 777.751 100.1C774.651 103.2 772.651 107.75 771.751 113.75H803.701ZM816.001 138.2V153.8C810.701 157.1 803.051 158.75 793.051 158.75C780.951 158.75 771.401 155.15 764.401 147.95C757.401 140.75 753.901 131.45 753.901 120.05C753.901 107.95 757.201 98.45 763.801 91.55C770.401 84.65 778.651 81.2 788.551 81.2C798.451 81.2 806.301 84.2 812.101 90.2C817.901 96.2 820.801 104.95 820.801 116.45C820.801 119.25 820.451 122.85 819.751 127.25H772.051C773.351 132.75 776.051 136.95 780.151 139.85C784.351 142.75 789.551 144.2 795.751 144.2C803.751 144.2 810.501 142.2 816.001 138.2ZM879.046 143.6C884.246 143.6 888.596 141.45 892.096 137.15C895.596 132.85 897.346 127.25 897.346 120.35C897.346 112.75 895.546 106.85 891.946 102.65C888.446 98.35 884.096 96.2 878.896 96.2C873.996 96.2 869.646 98.15 865.846 102.05C862.046 105.85 860.146 111.6 860.146 119.3C860.146 127.2 861.946 133.25 865.546 137.45C869.146 141.55 873.646 143.6 879.046 143.6ZM860.146 51.95V93.5C865.446 85.1 873.046 80.9 882.946 80.9C892.446 80.9 900.246 84.45 906.346 91.55C912.546 98.55 915.646 108.05 915.646 120.05C915.646 130.85 912.696 140.05 906.796 147.65C900.996 155.25 893.096 159.05 883.096 159.05C873.096 159.05 865.446 154.8 860.146 146.3V158H841.996V51.95H860.146ZM997.062 142.55H1038.31V158H978.012V56.9H1037.71V72.35H997.062V99.8H1033.21V115.1H997.062V142.55ZM1079.01 81.95V95C1083.31 85.7 1091.11 81.05 1102.41 81.05C1110.01 81.05 1116.01 83.35 1120.41 87.95C1124.81 92.55 1127.01 99.05 1127.01 107.45V158H1109.01V111.2C1109.01 106.2 1107.81 102.45 1105.41 99.95C1103.01 97.35 1099.76 96.05 1095.66 96.05C1090.96 96.05 1087.01 97.9 1083.81 101.6C1080.61 105.2 1079.01 110.4 1079.01 117.2V158H1061.01V81.95H1079.01ZM1182.12 140.9C1187.02 140.9 1191.12 139 1194.42 135.2C1197.72 131.3 1199.37 126.25 1199.37 120.05C1199.37 111.95 1197.77 106 1194.57 102.2C1191.37 98.4 1187.32 96.5 1182.42 96.5C1177.22 96.5 1173.12 98.55 1170.12 102.65C1167.12 106.65 1165.62 112.1 1165.62 119C1165.62 126.1 1167.17 131.55 1170.27 135.35C1173.37 139.05 1177.32 140.9 1182.12 140.9ZM1199.37 81.95H1217.37V151.1C1217.37 163.1 1213.87 172.1 1206.87 178.1C1199.97 184.2 1191.17 187.25 1180.47 187.25C1170.47 187.25 1161.72 185.45 1154.22 181.85V163.55C1161.02 168.35 1169.17 170.75 1178.67 170.75C1192.47 170.75 1199.37 164.15 1199.37 150.95V144.35C1194.77 151.85 1187.57 155.6 1177.77 155.6C1169.27 155.6 1161.97 152.5 1155.87 146.3C1149.87 140 1146.87 130.9 1146.87 119C1146.87 108 1149.72 98.95 1155.42 91.85C1161.22 84.65 1168.82 81.05 1178.22 81.05C1187.72 81.05 1194.77 85 1199.37 92.9V81.95ZM1241.27 158V81.95H1259.27V158H1241.27ZM1239.47 59.15C1239.47 56.15 1240.52 53.6 1242.62 51.5C1244.72 49.4 1247.27 48.35 1250.27 48.35C1253.27 48.35 1255.82 49.4 1257.92 51.5C1260.02 53.6 1261.07 56.15 1261.07 59.15C1261.07 62.25 1260.02 64.85 1257.92 66.95C1255.82 69.05 1253.27 70.1 1250.27 70.1C1247.27 70.1 1244.72 69.05 1242.62 66.95C1240.52 64.85 1239.47 62.25 1239.47 59.15ZM1301.98 81.95V95C1306.28 85.7 1314.08 81.05 1325.38 81.05C1332.98 81.05 1338.98 83.35 1343.38 87.95C1347.78 92.55 1349.98 99.05 1349.98 107.45V158H1331.98V111.2C1331.98 106.2 1330.78 102.45 1328.38 99.95C1325.98 97.35 1322.73 96.05 1318.63 96.05C1313.93 96.05 1309.98 97.9 1306.78 101.6C1303.58 105.2 1301.98 110.4 1301.98 117.2V158H1283.98V81.95H1301.98ZM1419.05 113.75V111.5C1418.85 106.6 1417.5 102.7 1415 99.8C1412.6 96.8 1409.05 95.3 1404.35 95.3C1400.05 95.3 1396.3 96.9 1393.1 100.1C1390 103.2 1388 107.75 1387.1 113.75H1419.05ZM1431.35 138.2V153.8C1426.05 157.1 1418.4 158.75 1408.4 158.75C1396.3 158.75 1386.75 155.15 1379.75 147.95C1372.75 140.75 1369.25 131.45 1369.25 120.05C1369.25 107.95 1372.55 98.45 1379.15 91.55C1385.75 84.65 1394 81.2 1403.9 81.2C1413.8 81.2 1421.65 84.2 1427.45 90.2C1433.25 96.2 1436.15 104.95 1436.15 116.45C1436.15 119.25 1435.8 122.85 1435.1 127.25H1387.4C1388.7 132.75 1391.4 136.95 1395.5 139.85C1399.7 142.75 1404.9 144.2 1411.1 144.2C1419.1 144.2 1425.85 142.2 1431.35 138.2ZM1502.94 113.75V111.5C1502.74 106.6 1501.39 102.7 1498.89 99.8C1496.49 96.8 1492.94 95.3 1488.24 95.3C1483.94 95.3 1480.19 96.9 1476.99 100.1C1473.89 103.2 1471.89 107.75 1470.99 113.75H1502.94ZM1515.24 138.2V153.8C1509.94 157.1 1502.29 158.75 1492.29 158.75C1480.19 158.75 1470.64 155.15 1463.64 147.95C1456.64 140.75 1453.14 131.45 1453.14 120.05C1453.14 107.95 1456.44 98.45 1463.04 91.55C1469.64 84.65 1477.89 81.2 1487.79 81.2C1497.69 81.2 1505.54 84.2 1511.34 90.2C1517.14 96.2 1520.04 104.95 1520.04 116.45C1520.04 119.25 1519.69 122.85 1518.99 127.25H1471.29C1472.59 132.75 1475.29 136.95 1479.39 139.85C1483.59 142.75 1488.79 144.2 1494.99 144.2C1502.99 144.2 1509.74 142.2 1515.24 138.2ZM1559.09 81.95V95.45C1562.59 86.05 1568.99 81.35 1578.29 81.35C1580.39 81.35 1582.09 81.5 1583.39 81.8V99.2C1581.09 98.2 1578.54 97.7 1575.74 97.7C1570.84 97.7 1566.84 99.7 1563.74 103.7C1560.64 107.7 1559.09 112.7 1559.09 118.7V158H1540.94L1541.09 81.95H1559.09ZM1599.22 158V81.95H1617.22V158H1599.22ZM1597.42 59.15C1597.42 56.15 1598.47 53.6 1600.57 51.5C1602.67 49.4 1605.22 48.35 1608.22 48.35C1611.22 48.35 1613.77 49.4 1615.87 51.5C1617.97 53.6 1619.02 56.15 1619.02 59.15C1619.02 62.25 1617.97 64.85 1615.87 66.95C1613.77 69.05 1611.22 70.1 1608.22 70.1C1605.22 70.1 1602.67 69.05 1600.57 66.95C1598.47 64.85 1597.42 62.25 1597.42 59.15ZM1659.93 81.95V95C1664.23 85.7 1672.03 81.05 1683.33 81.05C1690.93 81.05 1696.93 83.35 1701.33 87.95C1705.73 92.55 1707.93 99.05 1707.93 107.45V158H1689.93V111.2C1689.93 106.2 1688.73 102.45 1686.33 99.95C1683.93 97.35 1680.68 96.05 1676.58 96.05C1671.88 96.05 1667.93 97.9 1664.73 101.6C1661.53 105.2 1659.93 110.4 1659.93 117.2V158H1641.93V81.95H1659.93ZM1763.05 140.9C1767.95 140.9 1772.05 139 1775.35 135.2C1778.65 131.3 1780.3 126.25 1780.3 120.05C1780.3 111.95 1778.7 106 1775.5 102.2C1772.3 98.4 1768.25 96.5 1763.35 96.5C1758.15 96.5 1754.05 98.55 1751.05 102.65C1748.05 106.65 1746.55 112.1 1746.55 119C1746.55 126.1 1748.1 131.55 1751.2 135.35C1754.3 139.05 1758.25 140.9 1763.05 140.9ZM1780.3 81.95H1798.3V151.1C1798.3 163.1 1794.8 172.1 1787.8 178.1C1780.9 184.2 1772.1 187.25 1761.4 187.25C1751.4 187.25 1742.65 185.45 1735.15 181.85V163.55C1741.95 168.35 1750.1 170.75 1759.6 170.75C1773.4 170.75 1780.3 164.15 1780.3 150.95V144.35C1775.7 151.85 1768.5 155.6 1758.7 155.6C1750.2 155.6 1742.9 152.5 1736.8 146.3C1730.8 140 1727.8 130.9 1727.8 119C1727.8 108 1730.65 98.95 1736.35 91.85C1742.15 84.65 1749.75 81.05 1759.15 81.05C1768.65 81.05 1775.7 85 1780.3 92.9V81.95Z" fill="#0F6685"/>
<defs>
<filter id="filter0_i" x="162" y="20" width="182" height="182" filterUnits="userSpaceOnUse" color-interpolation-filters="sRGB">
<feFlood flood-opacity="0" result="BackgroundImageFix"/>
<feBlend mode="normal" in="SourceGraphic" in2="BackgroundImageFix" result="shape"/>
<feColorMatrix in="SourceAlpha" type="matrix" values="0 0 0 0 0 0 0 0 0 0 0 0 0 0 0 0 0 0 127 0" result="hardAlpha"/>
<feOffset dx="-5" dy="-15"/>
<feGaussianBlur stdDeviation="0.5"/>
<feComposite in2="hardAlpha" operator="arithmetic" k2="-1" k3="1"/>
<feColorMatrix type="matrix" values="0 0 0 0 0 0 0 0 0 0 0 0 0 0 0 0 0 0 0.25 0"/>
<feBlend mode="normal" in2="shape" result="effect1_innerShadow"/>
</filter>
<filter id="filter1_i" x="375" y="17" width="185" height="185" filterUnits="userSpaceOnUse" color-interpolation-filters="sRGB">
<feFlood flood-opacity="0" result="BackgroundImageFix"/>
<feBlend mode="normal" in="SourceGraphic" in2="BackgroundImageFix" result="shape"/>
<feColorMatrix in="SourceAlpha" type="matrix" values="0 0 0 0 0 0 0 0 0 0 0 0 0 0 0 0 0 0 127 0" result="hardAlpha"/>
<feOffset dx="-5" dy="-15"/>
<feGaussianBlur stdDeviation="2"/>
<feComposite in2="hardAlpha" operator="arithmetic" k2="-1" k3="1"/>
<feColorMatrix type="matrix" values="0 0 0 0 0 0 0 0 0 0 0 0 0 0 0 0 0 0 0.25 0"/>
<feBlend mode="normal" in2="shape" result="effect1_innerShadow"/>
</filter>
<filter id="filter2_i" x="-1" y="221" width="182" height="182" filterUnits="userSpaceOnUse" color-interpolation-filters="sRGB">
<feFlood flood-opacity="0" result="BackgroundImageFix"/>
<feBlend mode="normal" in="SourceGraphic" in2="BackgroundImageFix" result="shape"/>
<feColorMatrix in="SourceAlpha" type="matrix" values="0 0 0 0 0 0 0 0 0 0 0 0 0 0 0 0 0 0 127 0" result="hardAlpha"/>
<feOffset dx="-5" dy="-15"/>
<feGaussianBlur stdDeviation="0.5"/>
<feComposite in2="hardAlpha" operator="arithmetic" k2="-1" k3="1"/>
<feColorMatrix type="matrix" values="0 0 0 0 0 0 0 0 0 0 0 0 0 0 0 0 0 0 0.25 0"/>
<feBlend mode="normal" in2="shape" result="effect1_innerShadow"/>
</filter>
<filter id="filter3_i" x="215" y="221" width="182" height="182" filterUnits="userSpaceOnUse" color-interpolation-filters="sRGB">
<feFlood flood-opacity="0" result="BackgroundImageFix"/>
<feBlend mode="normal" in="SourceGraphic" in2="BackgroundImageFix" result="shape"/>
<feColorMatrix in="SourceAlpha" type="matrix" values="0 0 0 0 0 0 0 0 0 0 0 0 0 0 0 0 0 0 127 0" result="hardAlpha"/>
<feOffset dx="-5" dy="-15"/>
<feGaussianBlur stdDeviation="0.5"/>
<feComposite in2="hardAlpha" operator="arithmetic" k2="-1" k3="1"/>
<feColorMatrix type="matrix" values="0 0 0 0 0 0 0 0 0 0 0 0 0 0 0 0 0 0 0.25 0"/>
<feBlend mode="normal" in2="shape" result="effect1_innerShadow"/>
</filter>
<filter id="filter4_i" x="431" y="221" width="182" height="182" filterUnits="userSpaceOnUse" color-interpolation-filters="sRGB">
<feFlood flood-opacity="0" result="BackgroundImageFix"/>
<feBlend mode="normal" in="SourceGraphic" in2="BackgroundImageFix" result="shape"/>
<feColorMatrix in="SourceAlpha" type="matrix" values="0 0 0 0 0 0 0 0 0 0 0 0 0 0 0 0 0 0 127 0" result="hardAlpha"/>
<feOffset dx="-5" dy="-15"/>
<feGaussianBlur stdDeviation="0.5"/>
<feComposite in2="hardAlpha" operator="arithmetic" k2="-1" k3="1"/>
<feColorMatrix type="matrix" values="0 0 0 0 0 0 0 0 0 0 0 0 0 0 0 0 0 0 0.25 0"/>
<feBlend mode="normal" in2="shape" result="effect1_innerShadow"/>
</filter>
</defs>
</svg>
